<svg width="1536" height="286" viewBox="0 0 1536 286" fill="none" xmlns="http://www.w3.org/2000/svg">
<mask id="mask0_43_421" style="mask-type:luminance" maskUnits="userSpaceOnUse" x="62" y="178" width="169" height="92">
<path d="M62.498 178.778H230.455V269.788H62.498V178.778Z" fill="white"/>
</mask>
<g mask="url(#mask0_43_421)">
<mask id="mask1_43_421" style="mask-type:luminance" maskUnits="userSpaceOnUse" x="62" y="179" width="169" height="91">
<path d="M161.675 185.593L227.642 253.991C230.239 256.684 230.976 260.667 229.513 264.11C228.05 267.553 224.672 269.789 220.931 269.789H71.9478C68.2071 269.789 64.8284 267.553 63.3657 264.11C61.903 260.667 62.6394 256.684 65.2362 253.991L131.203 185.593C135.193 181.457 140.692 179.12 146.439 179.12C152.186 179.12 157.686 181.457 161.675 185.593Z" fill="white"/>
</mask>
<g mask="url(#mask1_43_421)">
<mask id="mask2_43_421" style="mask-type:luminance" maskUnits="userSpaceOnUse" x="62" y="178" width="169" height="92">
<path d="M62.4609 178.897H230.518V269.949H62.4609V178.897Z" fill="white"/>
</mask>
<g mask="url(#mask2_43_421)">
<path d="M50 169.796H242.956V269.789H50V169.796Z" fill="#560200"/>
</g>
</g>
</g>
<mask id="mask3_43_421" style="mask-type:luminance" maskUnits="userSpaceOnUse" x="12" y="16" width="169" height="92">
<path d="M12.4258 16H180.383V107.009H12.4258V16Z" fill="white"/>
</mask>
<g mask="url(#mask3_43_421)">
<mask id="mask4_43_421" style="mask-type:luminance" maskUnits="userSpaceOnUse" x="12" y="16" width="169" height="91">
<path d="M81.2032 100.196L15.2362 31.7976C12.6394 29.1051 11.903 25.1213 13.3657 21.6784C14.8284 18.2356 18.2071 16 21.9478 16H170.931C174.672 16 178.05 18.2356 179.513 21.6784C180.976 25.1213 180.239 29.1051 177.642 31.7976L111.675 100.196C107.686 104.332 102.186 106.669 96.4393 106.669C90.6925 106.669 85.1927 104.332 81.2032 100.196Z" fill="white"/>
</mask>
<g mask="url(#mask4_43_421)">
<mask id="mask5_43_421" style="mask-type:luminance" maskUnits="userSpaceOnUse" x="12" y="15" width="169" height="92">
<path d="M12.2949 15.8564H180.603V106.908H12.2949V15.8564Z" fill="white"/>
</mask>
<g mask="url(#mask5_43_421)">
<path d="M192.879 115.993H-0.0766231V16H192.879V115.993Z" fill="#7E0300"/>
</g>
</g>
</g>
<mask id="mask6_43_421" style="mask-type:luminance" maskUnits="userSpaceOnUse" x="0" y="85" width="92" height="169">
<path d="M0 85.8545H91.0094V253.812H0V85.8545Z" fill="white"/>
</mask>
<g mask="url(#mask6_43_421)">
<mask id="mask7_43_421" style="mask-type:luminance" maskUnits="userSpaceOnUse" x="0" y="85" width="91" height="169">
<path d="M84.1956 185.03L15.7976 250.997C13.1051 253.594 9.12131 254.33 5.67841 252.868C2.23551 251.405 0 248.026 0 244.285V95.3023C0 91.5616 2.23551 88.1829 5.67841 86.7202C9.12131 85.2575 13.1051 85.9939 15.7976 88.5907L84.1956 154.558C88.332 158.547 90.6687 164.047 90.6687 169.794C90.6687 175.541 88.332 181.04 84.1956 185.03Z" fill="white"/>
</mask>
<g mask="url(#mask7_43_421)">
<mask id="mask8_43_421" style="mask-type:luminance" maskUnits="userSpaceOnUse" x="-1" y="85" width="92" height="169">
<path d="M-0.246094 85.8389H90.8056V253.896H-0.246094V85.8389Z" fill="white"/>
</mask>
<g mask="url(#mask8_43_421)">
<path d="M99.9941 73.3555V266.311H0.000968933V73.3555H99.9941Z" fill="#560200"/>
</g>
</g>
</g>
<mask id="mask9_43_421" style="mask-type:luminance" maskUnits="userSpaceOnUse" x="151" y="31" width="92" height="169">
<path d="M151.869 31.9756H242.879V199.933H151.869V31.9756Z" fill="white"/>
</mask>
<g mask="url(#mask9_43_421)">
<mask id="mask10_43_421" style="mask-type:luminance" maskUnits="userSpaceOnUse" x="152" y="32" width="91" height="168">
<path d="M158.684 100.756L227.082 34.7889C229.775 32.1921 233.758 31.4557 237.201 32.9185C240.644 34.3811 242.88 37.7598 242.88 41.5006V190.484C242.88 194.224 240.644 197.603 237.201 199.066C233.758 200.528 229.775 199.792 227.082 197.195L158.684 131.228C154.548 127.239 152.211 121.739 152.211 115.992C152.211 110.245 154.548 104.745 158.684 100.756Z" fill="white"/>
</mask>
<g mask="url(#mask10_43_421)">
<mask id="mask11_43_421" style="mask-type:luminance" maskUnits="userSpaceOnUse" x="152" y="31" width="92" height="169">
<path d="M152.01 31.9092H243.062V199.966H152.01V31.9092Z" fill="white"/>
</mask>
<g mask="url(#mask11_43_421)">
<path d="M142.885 212.433V19.4771H242.878V212.433H142.885Z" fill="#560200"/>
</g>
</g>
</g>
<path d="M1495.22 62.5361H1535.56V218.875H1495.22V201.365C1485.42 215.957 1469.89 223.253 1448.63 223.253C1431.54 223.253 1417.36 217.52 1406.11 206.056C1395.06 194.591 1389.54 178.748 1389.54 158.528V62.5361H1429.87V153.526C1429.87 163.948 1432.68 171.974 1438.31 177.602C1443.94 183.022 1451.45 185.731 1460.83 185.731C1471.25 185.731 1479.59 182.5 1485.84 176.038C1492.09 169.576 1495.22 159.883 1495.22 146.959V62.5361Z" fill="black"/>
<path d="M1307.88 58.1582C1324.97 58.1582 1339.04 63.8906 1350.09 75.3555C1361.35 86.8204 1366.97 102.663 1366.97 122.883V218.875H1326.64V127.886C1326.64 117.463 1323.82 109.542 1318.2 104.122C1312.57 98.4937 1305.06 95.6796 1295.68 95.6796C1285.26 95.6796 1276.92 98.9106 1270.67 105.373C1264.42 111.835 1261.29 121.528 1261.29 134.452V218.875H1220.95V62.5357H1261.29V80.0457C1271.09 65.454 1286.62 58.1582 1307.88 58.1582Z" fill="black"/>
<path d="M1082.73 157.277C1088.15 176.872 1102.85 186.669 1126.82 186.669C1142.25 186.669 1153.92 181.458 1161.84 171.035L1194.36 189.796C1178.93 212.1 1156.21 223.252 1126.2 223.252C1100.35 223.252 1079.61 215.436 1063.97 199.802C1048.34 184.168 1040.52 164.469 1040.52 140.705C1040.52 117.15 1048.23 97.5557 1063.66 81.9218C1079.09 66.0794 1098.89 58.1582 1123.07 58.1582C1146 58.1582 1164.86 66.0794 1179.66 81.9218C1194.67 97.7641 1202.18 117.359 1202.18 140.705C1202.18 145.917 1201.66 151.441 1200.61 157.277H1082.73ZM1082.11 126.009H1161.84C1159.55 115.378 1154.75 107.457 1147.46 102.246C1140.37 97.0346 1132.24 94.4289 1123.07 94.4289C1112.23 94.4289 1103.27 97.243 1096.18 102.871C1089.09 108.291 1084.4 116.004 1082.11 126.009Z" fill="black"/>
<path d="M964.677 58.1582C982.604 58.1582 996.883 63.9949 1007.51 75.6682C1018.35 87.3415 1023.77 102.975 1023.77 122.57V218.875H983.438V125.384C983.438 116.004 981.145 108.708 976.559 103.497C971.973 98.2853 965.511 95.6796 957.173 95.6796C948.001 95.6796 940.809 98.7022 935.598 104.747C930.595 110.792 928.093 119.547 928.093 131.012V218.875H887.758V125.384C887.758 116.004 885.465 108.708 880.879 103.497C876.293 98.2853 869.831 95.6796 861.493 95.6796C852.529 95.6796 845.338 98.7022 839.918 104.747C834.707 110.792 832.101 119.547 832.101 131.012V218.875H791.766V62.5357H832.101V79.1077C841.481 65.1414 855.969 58.1582 875.563 58.1582C894.741 58.1582 908.916 65.6625 918.088 80.6711C928.51 65.6625 944.04 58.1582 964.677 58.1582Z" fill="black"/>
<path d="M723.893 218.875V62.5361H764.228V218.875H723.893Z" fill="black"/>
<path d="M657.3 62.5357H696.697V211.371C696.697 235.551 688.672 253.999 672.621 266.715C656.778 279.43 637.601 285.788 615.088 285.788C598.203 285.788 583.299 282.557 570.375 276.095C557.659 269.633 547.862 260.149 540.983 247.641L575.378 227.943C583.299 242.534 596.953 249.83 616.339 249.83C629.054 249.83 639.06 246.495 646.356 239.824C653.652 233.154 657.3 223.669 657.3 211.371V194.486C645.418 210.328 628.742 218.25 607.271 218.25C585.175 218.25 566.623 210.537 551.614 195.111C536.814 179.477 529.414 160.508 529.414 138.204C529.414 116.108 536.918 97.243 551.927 81.6091C566.935 65.9752 585.384 58.1582 607.271 58.1582C628.742 58.1582 645.418 66.0794 657.3 81.9218V62.5357ZM581.944 169.159C590.282 177.08 600.809 181.041 613.525 181.041C626.24 181.041 636.663 177.08 644.792 169.159C653.131 161.029 657.3 150.711 657.3 138.204C657.3 125.905 653.131 115.795 644.792 107.874C636.663 99.7444 626.24 95.6796 613.525 95.6796C600.809 95.6796 590.282 99.7444 581.944 107.874C573.814 115.795 569.75 125.905 569.75 138.204C569.75 150.711 573.814 161.029 581.944 169.159Z" fill="black"/>
<path d="M469.67 218.875V62.5361H510.005V218.875H469.67Z" fill="black"/>
<path d="M401.826 0H442.162V218.875H401.826V200.427C389.945 215.644 373.06 223.253 351.172 223.253C330.119 223.253 312.088 215.331 297.079 199.489C282.279 183.438 274.879 163.844 274.879 140.705C274.879 117.567 282.279 98.0768 297.079 82.2345C312.088 66.1836 330.119 58.1582 351.172 58.1582C373.06 58.1582 389.945 65.7667 401.826 80.9838V0ZM327.409 172.599C335.747 180.728 346.17 184.793 358.677 184.793C371.184 184.793 381.502 180.728 389.632 172.599C397.762 164.26 401.826 153.629 401.826 140.705C401.826 127.781 397.762 117.254 389.632 109.125C381.502 100.787 371.184 96.6177 358.677 96.6177C346.17 96.6177 335.747 100.787 327.409 109.125C319.279 117.254 315.214 127.781 315.214 140.705C315.214 153.629 319.279 164.26 327.409 172.599Z" fill="black"/>
</svg>
